<svg t="1727330616821" class="icon" viewBox="0 0 1026 1024" version="1.1"
  xmlns="http://www.w3.org/2000/svg" p-id="7650" width="20" height="20">
  <path
    d="M45.714286 827.314286c25.257143 0 45.714286-20.457143 45.714285-45.714286 0-110.171429 85.942857-200.685714 194.285715-208 4.685714 0.342857 9.485714 0.571429 14.285714 0.571429s9.6-0.228571 14.285714-0.571429c108.342857 7.314286 194.285714 97.828571 194.285715 208 0 25.257143 20.457143 45.714286 45.714285 45.714286s45.714286-20.457143 45.714286-45.714286c0-80.114286-31.2-155.428571-87.885714-212.114286-21.6-21.6-45.942857-39.428571-72.228572-53.371428 36-35.885714 58.285714-85.6 58.285715-140.342857 0-109.371429-88.914286-198.285714-198.285715-198.285715S101.714286 266.514286 101.714286 375.771429c0 54.742857 22.285714 104.457143 58.285714 140.342857-26.285714 13.828571-50.628571 31.771429-72.228571 53.371428C31.2 626.171429 0 701.485714 0 781.6c0 25.257143 20.457143 45.714286 45.714286 45.714286z m147.428571-451.542857c0-58.857143 47.885714-106.857143 106.857143-106.857143s106.857143 47.885714 106.857143 106.857143c0 54.628571-41.257143 99.885714-94.285714 106.057142-4.114286-0.114286-8.342857-0.228571-12.571429-0.228571s-8.342857 0.114286-12.571429 0.228571c-53.028571-6.171429-94.285714-51.314286-94.285714-106.057142zM980.457143 458.742857h-380.571429c-25.142857 0-45.714286 20.571429-45.714285 45.714286s20.571429 45.714286 45.714285 45.714286h380.571429c25.142857 0 45.714286-20.571429 45.714286-45.714286s-20.571429-45.714286-45.714286-45.714286zM980.457143 659.428571h-270.857143c-25.142857 0-45.714286 20.571429-45.714286 45.714286s20.571429 45.714286 45.714286 45.714286h270.857143c25.142857 0 45.714286-20.571429 45.714286-45.714286s-20.571429-45.714286-45.714286-45.714286zM980.457143 258.171429h-286.857143c-25.142857 0-45.714286 20.571429-45.714286 45.714285s20.571429 45.714286 45.714286 45.714286h286.857143c25.142857 0 45.714286-20.571429 45.714286-45.714286s-20.571429-45.714286-45.714286-45.714285zM980 930.4H848v-27.771429c0-25.142857-20.571429-45.714286-45.714286-45.714285s-45.714286 20.571429-45.714285 45.714285v27.771429H270.857143v-27.771429c0-25.142857-20.571429-45.714286-45.714286-45.714285s-45.714286 20.571429-45.714286 45.714285v27.771429H47.428571c-25.142857 0-45.714286 20.571429-45.714285 45.714286s20.571429 45.714286 45.714285 45.714285h932.571429c25.142857 0 45.714286-20.571429 45.714286-45.714285s-20.571429-45.714286-45.714286-45.714286zM45.714286 92.342857h932.571428c25.142857 0 45.714286-20.571429 45.714286-45.714286s-20.571429-45.714286-45.714286-45.714285H45.714286c-25.142857 0-45.714286 20.571429-45.714286 45.714285s20.571429 45.714286 45.714286 45.714286z"
    p-id="7651"></path>
</svg>