<svg t="1727330529409" class="icon" viewBox="0 0 1024 1024" version="1.1"
  xmlns="http://www.w3.org/2000/svg" p-id="6408" width="20" height="20">
  <path
    d="M945.327386 795.175736c-23.636039-56.064228-57.548617-106.305085-100.824264-149.466548s-93.516503-77.074041-149.466548-100.824264c-1.712756-0.685103-3.425513-1.484389-5.252453-2.169491 12.103479-9.020517 23.750223-18.840321 34.597681-29.801963 56.749331-56.749331 88.035682-132.224799 88.035682-212.495986S781.131133 144.67083 724.381802 87.921499 592.271186 0 512 0 356.253345 31.286351 299.504014 88.035682s-88.035682 132.224799-88.035682 212.495986 31.286351 155.746655 88.035682 212.495986c10.847458 10.847458 22.494202 20.781445 34.597681 29.801962-1.712756 0.685103-3.539697 1.484389-5.252453 2.169492-56.064228 23.750223-106.305085 57.548617-149.466548 100.824264-43.161463 43.161463-77.074041 93.516503-100.824264 149.466548C54.008921 853.295272 41.56289 914.840321 41.56289 978.326494c0 25.234612 20.438894 45.673506 45.673506 45.673506s45.673506-20.438894 45.673506-45.673506c0-200.963426 157.345227-365.958965 355.225691-378.290812 7.87868 0.570919 15.75736 0.91347 23.750223 0.913471s15.871543-0.342551 23.750223-0.913471C733.630687 612.367529 890.975914 777.363069 890.975914 978.326494c0 25.234612 20.438894 45.673506 45.673506 45.673506s45.673506-20.438894 45.673506-45.673506c0-63.486173-12.44603-125.031222-36.99554-183.150758zM302.815343 300.531668c0-115.325602 93.859054-209.184657 209.184657-209.184656 115.325602 0 209.184657 93.859054 209.184657 209.184656 0 107.789474-81.983943 196.85281-186.918823 207.928635-7.421945-0.342551-14.729706-0.570919-22.15165-0.570919s-14.843889 0.228368-22.151651 0.570919c-105.163247-11.075825-187.14719-100.139161-187.14719-207.928635z"
    p-id="6409"></path>
</svg>